<svg width="512" height="335" viewBox="0 0 512 335" fill="none" xmlns="http://www.w3.org/2000/svg">
<path d="M6.38407 241.978L4.91207 235.722L21.1961 219.3H29.5681L6.38407 241.978ZM1.18607 251.5V219.3H8.08607V251.5H1.18607ZM22.0701 251.5L10.0181 235.492L14.7561 231.398L30.2581 251.5H22.0701Z" fill="white"/>
<path d="M52.4461 251.96C50.0847 251.96 47.9074 251.546 45.9141 250.718C43.9207 249.89 42.1727 248.74 40.6701 247.268C39.1981 245.765 38.0634 244.002 37.2661 241.978C36.4687 239.923 36.0701 237.7 36.0701 235.308C36.0701 232.885 36.4687 230.677 37.2661 228.684C38.0634 226.66 39.1981 224.897 40.6701 223.394C42.1727 221.891 43.9207 220.726 45.9141 219.898C47.9074 219.07 50.0847 218.656 52.4461 218.656C54.8381 218.656 57.0154 219.07 58.9781 219.898C60.9714 220.726 62.7041 221.891 64.1761 223.394C65.6787 224.897 66.8287 226.66 67.6261 228.684C68.4234 230.708 68.8221 232.916 68.8221 235.308C68.8221 237.7 68.4234 239.908 67.6261 241.932C66.8287 243.956 65.6787 245.719 64.1761 247.222C62.7041 248.725 60.9714 249.89 58.9781 250.718C57.0154 251.546 54.8381 251.96 52.4461 251.96ZM52.4461 245.428C53.7954 245.428 55.0374 245.183 56.1721 244.692C57.3374 244.201 58.3341 243.496 59.1621 242.576C59.9901 241.656 60.6341 240.583 61.0941 239.356C61.5847 238.129 61.8301 236.78 61.8301 235.308C61.8301 233.836 61.5847 232.487 61.0941 231.26C60.6341 230.033 59.9901 228.975 59.1621 228.086C58.3341 227.166 57.3374 226.461 56.1721 225.97C55.0374 225.449 53.7954 225.188 52.4461 225.188C51.0967 225.188 49.8547 225.449 48.7201 225.97C47.5854 226.461 46.5887 227.166 45.7301 228.086C44.8714 228.975 44.2121 230.033 43.7521 231.26C43.3227 232.487 43.1081 233.836 43.1081 235.308C43.1081 236.78 43.3227 238.129 43.7521 239.356C44.2121 240.583 44.8714 241.656 45.7301 242.576C46.5887 243.496 47.5854 244.201 48.7201 244.692C49.8547 245.183 51.0967 245.428 52.4461 245.428Z" fill="white"/>
<path d="M78.1861 251.5V219.3H85.0861V245.29H99.6681V251.5H78.1861Z" fill="white"/>
<path d="M109.186 251.5V219.3H122.388C124.749 219.3 126.881 219.699 128.782 220.496C130.714 221.263 132.37 222.367 133.75 223.808C135.161 225.219 136.234 226.905 136.97 228.868C137.706 230.831 138.074 233.008 138.074 235.4C138.074 237.761 137.706 239.939 136.97 241.932C136.234 243.895 135.176 245.597 133.796 247.038C132.416 248.449 130.76 249.553 128.828 250.35C126.896 251.117 124.749 251.5 122.388 251.5H109.186ZM116.086 246.486L115.35 245.29H122.158C123.538 245.29 124.78 245.06 125.884 244.6C126.988 244.109 127.923 243.45 128.69 242.622C129.487 241.763 130.085 240.721 130.484 239.494C130.883 238.267 131.082 236.903 131.082 235.4C131.082 233.897 130.883 232.548 130.484 231.352C130.085 230.125 129.487 229.083 128.69 228.224C127.923 227.365 126.988 226.706 125.884 226.246C124.78 225.755 123.538 225.51 122.158 225.51H115.212L116.086 224.406V246.486Z" fill="white"/>
<path d="M161.434 251.776C158.827 251.776 156.497 251.239 154.442 250.166C152.418 249.062 150.823 247.559 149.658 245.658C148.493 243.726 147.91 241.549 147.91 239.126V219.254H154.856V238.712C154.856 240 155.147 241.165 155.73 242.208C156.313 243.22 157.095 244.033 158.076 244.646C159.088 245.259 160.207 245.566 161.434 245.566C162.691 245.566 163.826 245.259 164.838 244.646C165.881 244.033 166.693 243.22 167.276 242.208C167.889 241.165 168.196 240 168.196 238.712V219.254H174.912V239.126C174.912 241.549 174.329 243.726 173.164 245.658C171.999 247.559 170.389 249.062 168.334 250.166C166.31 251.239 164.01 251.776 161.434 251.776Z" fill="white"/>
<path d="M186.186 251.5V219.3H192.35L210.152 243.358H208.864C208.741 242.407 208.634 241.487 208.542 240.598C208.45 239.678 208.358 238.758 208.266 237.838C208.205 236.887 208.143 235.921 208.082 234.94C208.051 233.928 208.021 232.87 207.99 231.766C207.959 230.631 207.944 229.405 207.944 228.086V219.3H214.706V251.5H208.45L190.28 227.212L192.028 227.258C192.181 228.853 192.304 230.217 192.396 231.352C192.519 232.456 192.611 233.422 192.672 234.25C192.733 235.078 192.779 235.799 192.81 236.412C192.871 237.025 192.902 237.608 192.902 238.16C192.933 238.712 192.948 239.295 192.948 239.908V251.5H186.186Z" fill="white"/>
<path d="M226.186 251.5V219.3H247.944V225.372H232.902V245.428H248.266V251.5H226.186ZM229.406 238.022V232.134H245.736V238.022H229.406Z" fill="white"/>
<path d="M259.186 251.5V219.3H265.35L283.152 243.358H281.864C281.741 242.407 281.634 241.487 281.542 240.598C281.45 239.678 281.358 238.758 281.266 237.838C281.205 236.887 281.143 235.921 281.082 234.94C281.051 233.928 281.021 232.87 280.99 231.766C280.959 230.631 280.944 229.405 280.944 228.086V219.3H287.706V251.5H281.45L263.28 227.212L265.028 227.258C265.181 228.853 265.304 230.217 265.396 231.352C265.519 232.456 265.611 233.422 265.672 234.25C265.733 235.078 265.779 235.799 265.81 236.412C265.871 237.025 265.902 237.608 265.902 238.16C265.933 238.712 265.948 239.295 265.948 239.908V251.5H259.186Z" fill="white"/>
<path d="M304.384 241.978L302.912 235.722L319.196 219.3H327.568L304.384 241.978ZM299.186 251.5V219.3H306.086V251.5H299.186ZM320.07 251.5L308.018 235.492L312.756 231.398L328.258 251.5H320.07Z" fill="white"/>
<path d="M350.446 251.96C348.085 251.96 345.907 251.546 343.914 250.718C341.921 249.89 340.173 248.74 338.67 247.268C337.198 245.765 336.063 244.002 335.266 241.978C334.469 239.923 334.07 237.7 334.07 235.308C334.07 232.885 334.469 230.677 335.266 228.684C336.063 226.66 337.198 224.897 338.67 223.394C340.173 221.891 341.921 220.726 343.914 219.898C345.907 219.07 348.085 218.656 350.446 218.656C352.838 218.656 355.015 219.07 356.978 219.898C358.971 220.726 360.704 221.891 362.176 223.394C363.679 224.897 364.829 226.66 365.626 228.684C366.423 230.708 366.822 232.916 366.822 235.308C366.822 237.7 366.423 239.908 365.626 241.932C364.829 243.956 363.679 245.719 362.176 247.222C360.704 248.725 358.971 249.89 356.978 250.718C355.015 251.546 352.838 251.96 350.446 251.96ZM350.446 245.428C351.795 245.428 353.037 245.183 354.172 244.692C355.337 244.201 356.334 243.496 357.162 242.576C357.99 241.656 358.634 240.583 359.094 239.356C359.585 238.129 359.83 236.78 359.83 235.308C359.83 233.836 359.585 232.487 359.094 231.26C358.634 230.033 357.99 228.975 357.162 228.086C356.334 227.166 355.337 226.461 354.172 225.97C353.037 225.449 351.795 225.188 350.446 225.188C349.097 225.188 347.855 225.449 346.72 225.97C345.585 226.461 344.589 227.166 343.73 228.086C342.871 228.975 342.212 230.033 341.752 231.26C341.323 232.487 341.108 233.836 341.108 235.308C341.108 236.78 341.323 238.129 341.752 239.356C342.212 240.583 342.871 241.656 343.73 242.576C344.589 243.496 345.585 244.201 346.72 244.692C347.855 245.183 349.097 245.428 350.446 245.428Z" fill="white"/>
<path d="M201 319C191.009 322.662 168 322.5 168 322.5C167.531 325.364 187.454 333.054 201 334.5C201 334.5 216.289 334.696 226 333C236.224 331.215 242.028 330.376 252 327.5C272.651 321.543 283.17 314.862 302 304.5C325.297 291.68 358.5 266.5 358.5 266.5H281.5C281.5 266.5 250.508 296.976 226 309C216.56 313.632 201 319 201 319Z" fill="white"/>
<path d="M9.90207 188.5V162.51H0.518066V156.3H26.4621V162.51H16.8021V188.5H9.90207Z" fill="white"/>
<path d="M46.1861 188.5V156.3H67.9441V162.372H52.9021V182.428H68.2661V188.5H46.1861ZM49.4061 175.022V169.134H65.7361V175.022H49.4061Z" fill="white"/>
<path d="M96.9021 188.5V162.51H87.5181V156.3H113.462V162.51H103.802V188.5H96.9021Z" fill="white"/>
<path d="M138.338 189H132.933V155.88H138.338V189Z" fill="white"/>
<path d="M157.368 188.5L169.972 156.3H176.136L188.694 188.5H181.61L175.124 171.158C174.94 170.667 174.71 170.039 174.434 169.272C174.189 168.505 173.928 167.693 173.652 166.834C173.376 165.975 173.115 165.163 172.87 164.396C172.625 163.599 172.441 162.939 172.318 162.418L173.56 162.372C173.376 163.077 173.161 163.813 172.916 164.58C172.701 165.316 172.471 166.083 172.226 166.88C171.981 167.647 171.72 168.398 171.444 169.134C171.168 169.87 170.907 170.591 170.662 171.296L164.176 188.5H157.368ZM163.21 181.738L165.464 176.172H180.23L182.53 181.738H163.21Z" fill="white"/>
<path d="M208.186 188.5V156.3H214.35L232.152 180.358H230.864C230.741 179.407 230.634 178.487 230.542 177.598C230.45 176.678 230.358 175.758 230.266 174.838C230.205 173.887 230.143 172.921 230.082 171.94C230.051 170.928 230.021 169.87 229.99 168.766C229.959 167.631 229.944 166.405 229.944 165.086V156.3H236.706V188.5H230.45L212.28 164.212L214.028 164.258C214.181 165.853 214.304 167.217 214.396 168.352C214.519 169.456 214.611 170.422 214.672 171.25C214.733 172.078 214.779 172.799 214.81 173.412C214.871 174.025 214.902 174.608 214.902 175.16C214.933 175.712 214.948 176.295 214.948 176.908V188.5H208.186Z" fill="white"/>
<path d="M255.368 188.5L267.972 156.3H274.136L286.694 188.5H279.61L273.124 171.158C272.94 170.667 272.71 170.039 272.434 169.272C272.189 168.505 271.928 167.693 271.652 166.834C271.376 165.975 271.115 165.163 270.87 164.396C270.625 163.599 270.441 162.939 270.318 162.418L271.56 162.372C271.376 163.077 271.161 163.813 270.916 164.58C270.701 165.316 270.471 166.083 270.226 166.88C269.981 167.647 269.72 168.398 269.444 169.134C269.168 169.87 268.907 170.591 268.662 171.296L262.176 188.5H255.368ZM261.21 181.738L263.464 176.172H278.23L280.53 181.738H261.21Z" fill="white"/>
<path d="M470.5 112.576V132.5H498.318L504.5 116.246C504.5 116.246 498.116 112.994 493.682 112.576C491.879 112.405 489.046 112.576 489.046 112.576H470.5Z" fill="white"/>
<path d="M411 152.5V226.5L418.5 220C418.5 220 416.751 199.296 419.5 186.5C420.007 184.139 420.219 183.429 421 180.5L423 173C423 173 425.237 168.783 426.5 166C427.549 163.688 427.612 162.125 429 160C429.985 158.493 430.299 157.09 432 156.5C433.107 156.116 433.828 156.5 435 156.5C436.172 156.5 436.923 156.038 438 156.5C439.015 156.935 439.28 157.662 440 158.5C440.637 159.24 440.952 159.692 441.5 160.5C442.384 161.803 443.125 162.471 443.5 164C443.826 165.327 443.208 166.165 443.5 167.5C443.725 168.527 443.757 169.256 444.5 170C445.244 170.744 445.952 171.087 447 171C447.87 170.927 448.387 170.621 449 170C449.739 169.252 449.742 168.519 450 167.5C450.725 164.636 450.05 162.762 449 160C448.191 157.871 447.449 156.756 446 155C444.504 153.186 443.575 152.107 441.5 151C439.536 149.952 438.226 149.5 436 149.5C433.774 149.5 430.5 151 430.5 151C430.5 151 427.838 153.242 426.5 155C424.649 157.432 423 162 423 162H421V152.5H411Z" fill="white"/>
<path d="M461.5 133L460 184L471 174.5L469.5 133H461.5Z" fill="white"/>
<path fill-rule="evenodd" clip-rule="evenodd" d="M498.495 0.933594L498.496 0.936523C498.496 0.938064 498.497 0.940521 498.497 0.943359C498.498 0.949454 498.499 0.958888 498.5 0.970703C498.503 0.994683 498.509 1.03059 498.515 1.07715C498.527 1.17071 498.545 1.309 498.568 1.4873C498.615 1.84443 498.681 2.36323 498.762 3.01074C498.923 4.30635 499.142 6.11791 499.371 8.18066C499.829 12.3032 500.331 17.443 500.5 21.4795C500.795 28.5453 500.293 37.5704 499.719 44.8154C499.432 48.4407 499.126 51.6256 498.893 53.9043C498.776 55.0435 498.677 55.9566 498.607 56.585C498.579 56.8455 498.553 57.0573 498.535 57.2158C498.665 57.2849 498.833 57.3747 499.03 57.4834C499.523 57.7553 500.203 58.1444 500.952 58.6152C502.438 59.5492 504.244 60.8331 505.382 62.1768C507.95 65.208 508.294 67.7633 509.475 71.3438C511.403 77.192 511.396 85.0263 510.921 91.3486C510.683 94.5195 510.326 97.329 510.028 99.3457C509.88 100.354 509.745 101.165 509.648 101.725C509.6 102.004 509.56 102.222 509.533 102.369C509.52 102.443 509.509 102.499 509.502 102.537C509.498 102.556 509.496 102.57 509.494 102.58C509.493 102.585 509.492 102.588 509.491 102.591V102.596L509.409 103.017L508.98 103L471.315 101.473L471.525 100.842L471.526 100.841C471.527 100.84 471.527 100.838 471.527 100.836C471.529 100.832 471.531 100.827 471.533 100.819C471.538 100.804 471.546 100.782 471.556 100.752C471.575 100.692 471.604 100.603 471.641 100.488C471.715 100.258 471.822 99.9225 471.95 99.5029C472.208 98.6633 472.553 97.4873 472.908 96.1445C473.621 93.4496 474.359 90.1161 474.501 87.4736C474.525 87.0175 474.571 86.6074 474.617 86.2314C474.664 85.8509 474.709 85.5155 474.734 85.1816C474.785 84.531 474.763 83.9113 474.523 83.1494C474.236 82.2339 473.94 81.5102 473.525 80.915C473.117 80.3297 472.58 79.8488 471.776 79.4473C471.012 79.0649 470.35 79.0206 469.628 79.0986C469.256 79.1389 468.876 79.2106 468.445 79.2891C468.021 79.3664 467.557 79.4482 467.049 79.498C466.09 79.592 464.865 79.8357 463.866 80.0605C463.37 80.1723 462.935 80.2786 462.624 80.3564C462.58 80.3674 462.539 80.3779 462.5 80.3877V102.953L462.05 102.998C462.049 102.998 462.047 102.998 462.046 102.998C462.043 102.998 462.039 102.998 462.033 102.999C462.022 103 462.006 103.002 461.984 103.004C461.941 103.008 461.877 103.016 461.794 103.024C461.628 103.042 461.386 103.067 461.084 103.102C460.481 103.17 459.638 103.271 458.683 103.4C456.766 103.66 454.414 104.032 452.622 104.484C449.551 105.26 447.783 105.322 445.269 106.922C444.048 107.699 443.008 108.225 442.146 108.928C441.325 109.597 440.734 110.381 440.49 111.598C440.282 112.641 440.268 113.547 440.475 114.361C440.68 115.17 441.112 115.92 441.85 116.643C442.222 117.007 442.765 117.264 443.414 117.43C444.059 117.595 444.772 117.662 445.447 117.674C446.12 117.686 446.74 117.644 447.192 117.599C447.418 117.576 447.601 117.553 447.727 117.535C447.789 117.526 447.838 117.52 447.87 117.515C447.882 117.513 447.892 117.511 447.899 117.51L461 114.366V132.5H395V182.559C395.09 182.57 395.191 182.583 395.303 182.599C395.761 182.662 396.394 182.756 397.09 182.883C398.462 183.132 400.152 183.517 401.224 184.053C401.694 184.288 402.106 184.435 402.48 184.567C402.837 184.694 403.208 184.822 403.515 185.014C403.849 185.222 404.111 185.507 404.278 185.936C404.437 186.341 404.5 186.851 404.5 187.5C404.5 188.798 404.287 189.549 403.827 190.11C403.609 190.377 403.352 190.578 403.107 190.762C402.855 190.951 402.606 191.129 402.333 191.373C401.734 191.909 400.951 192.228 400.154 192.419C399.354 192.61 398.504 192.68 397.735 192.69C396.965 192.701 396.263 192.652 395.754 192.601C395.499 192.575 395.292 192.548 395.148 192.527C395.075 192.517 395.019 192.509 394.98 192.503C394.973 192.502 394.966 192.501 394.96 192.5H393.481C392.907 206.246 392.699 214.089 393.497 227.95L394.994 237.926L395.032 238.175L382.716 250.491L381.013 243.112L381.002 243.064L381 243.015V242.991C381 242.976 380.999 242.953 380.998 242.923C380.996 242.863 380.994 242.775 380.991 242.662C380.985 242.435 380.977 242.104 380.968 241.692C380.95 240.869 380.928 239.717 380.914 238.407C380.886 235.789 380.886 232.528 381.001 229.978C381.21 225.33 381.963 219.434 382.661 214.711C383.011 212.347 383.348 210.273 383.597 208.789C383.721 208.047 383.824 207.453 383.896 207.044C383.931 206.84 383.959 206.681 383.979 206.574C383.988 206.521 383.995 206.481 384 206.453C384.001 206.448 384.002 206.442 384.003 206.438L385 190.982V189.556C384.733 189.584 384.375 189.621 383.936 189.667C382.905 189.774 381.43 189.927 379.652 190.106C376.097 190.466 371.329 190.935 366.482 191.373C361.637 191.811 356.71 192.217 352.835 192.452C350.899 192.57 349.219 192.644 347.942 192.658C347.305 192.665 346.759 192.657 346.33 192.63C345.924 192.605 345.555 192.56 345.315 192.464C345.309 192.462 345.251 192.442 345.096 192.494C344.942 192.546 344.741 192.653 344.491 192.83C343.994 193.183 343.386 193.754 342.703 194.495C341.341 195.972 339.746 198.046 338.218 200.167C336.692 202.284 335.244 204.435 334.176 206.057C333.642 206.867 333.203 207.544 332.898 208.02C332.746 208.257 332.627 208.444 332.546 208.571C332.506 208.635 332.475 208.684 332.454 208.717C332.444 208.733 332.436 208.746 332.431 208.754C332.428 208.758 332.426 208.761 332.425 208.763L332.424 208.766L332.276 209H323.565L324.084 208.223L324.5 208.5C324.116 208.244 324.087 208.224 324.085 208.222L324.086 208.22C324.087 208.218 324.089 208.215 324.092 208.211C324.097 208.203 324.104 208.192 324.114 208.178C324.134 208.148 324.165 208.103 324.204 208.044C324.283 207.926 324.4 207.75 324.555 207.52C324.864 207.058 325.323 206.378 325.916 205.499C327.103 203.741 328.831 201.191 331 198.021C335.338 191.68 341.438 182.858 348.484 172.935C362.575 153.09 380.462 128.824 395.621 111.174C404.091 101.312 409.171 96.0215 418.658 87.1348C425.616 80.6177 429.384 76.6412 437.211 71.0918C446.489 64.5136 452.035 60.7749 462.836 57.0273C467.988 55.2397 470.983 54.2249 476.435 53.5039C479.379 53.1145 482.537 53.1156 485.258 53.2119C488.017 53.3096 490.254 53.5 491.5 53.5C491.878 53.5 492.166 53.3087 492.416 52.8203C492.678 52.3078 492.849 51.5487 492.966 50.6084C493.082 49.6771 493.14 48.6275 493.208 47.5518C493.275 46.4857 493.351 45.3956 493.506 44.4219C494.432 38.5978 494.099 35.1698 493.527 29.3086L493.502 29.0488C492.986 23.7508 492.218 20.8451 491.013 15.6123C490.589 13.7705 490.099 12.4257 489.639 11.002C489.179 9.57811 488.759 8.10494 488.504 6.0625C488.349 4.82668 488.985 3.85856 489.883 3.14062C490.773 2.42872 491.98 1.9064 493.158 1.52441C494.344 1.13981 495.541 0.885137 496.437 0.726562C496.885 0.64713 497.261 0.591574 497.525 0.555664C497.658 0.537709 497.762 0.524222 497.834 0.515625C497.87 0.511328 497.898 0.508004 497.917 0.505859C497.927 0.504787 497.934 0.504463 497.94 0.503906C497.942 0.503644 497.944 0.503076 497.945 0.50293H497.947L498.432 0.452148L498.495 0.933594ZM382.75 132.5L375.1 142.7L375.095 142.707L375.089 142.715L362.589 160.715L362.583 160.725L362.576 160.734L348.579 183.025L386.01 181.986L384.99 132.5H382.75Z" fill="white"/>
</svg>
