<svg width="515" height="335" viewBox="0 0 515 335" fill="none" xmlns="http://www.w3.org/2000/svg">
<path d="M9.384 241.978L7.912 235.722L24.196 219.3H32.568L9.384 241.978ZM4.186 251.5V219.3H11.086V251.5H4.186ZM25.07 251.5L13.018 235.492L17.756 231.398L33.258 251.5H25.07Z" fill="black"/>
<path d="M55.446 251.96C53.0847 251.96 50.9073 251.546 48.914 250.718C46.9207 249.89 45.1727 248.74 43.67 247.268C42.198 245.765 41.0633 244.002 40.266 241.978C39.4687 239.923 39.07 237.7 39.07 235.308C39.07 232.885 39.4687 230.677 40.266 228.684C41.0633 226.66 42.198 224.897 43.67 223.394C45.1727 221.891 46.9207 220.726 48.914 219.898C50.9073 219.07 53.0847 218.656 55.446 218.656C57.838 218.656 60.0153 219.07 61.978 219.898C63.9713 220.726 65.704 221.891 67.176 223.394C68.6787 224.897 69.8287 226.66 70.626 228.684C71.4233 230.708 71.822 232.916 71.822 235.308C71.822 237.7 71.4233 239.908 70.626 241.932C69.8287 243.956 68.6787 245.719 67.176 247.222C65.704 248.725 63.9713 249.89 61.978 250.718C60.0153 251.546 57.838 251.96 55.446 251.96ZM55.446 245.428C56.7953 245.428 58.0373 245.183 59.172 244.692C60.3373 244.201 61.334 243.496 62.162 242.576C62.99 241.656 63.634 240.583 64.094 239.356C64.5847 238.129 64.83 236.78 64.83 235.308C64.83 233.836 64.5847 232.487 64.094 231.26C63.634 230.033 62.99 228.975 62.162 228.086C61.334 227.166 60.3373 226.461 59.172 225.97C58.0373 225.449 56.7953 225.188 55.446 225.188C54.0967 225.188 52.8547 225.449 51.72 225.97C50.5853 226.461 49.5887 227.166 48.73 228.086C47.8713 228.975 47.212 230.033 46.752 231.26C46.3227 232.487 46.108 233.836 46.108 235.308C46.108 236.78 46.3227 238.129 46.752 239.356C47.212 240.583 47.8713 241.656 48.73 242.576C49.5887 243.496 50.5853 244.201 51.72 244.692C52.8547 245.183 54.0967 245.428 55.446 245.428Z" fill="black"/>
<path d="M81.186 251.5V219.3H88.086V245.29H102.668V251.5H81.186Z" fill="black"/>
<path d="M112.186 251.5V219.3H125.388C127.749 219.3 129.881 219.699 131.782 220.496C133.714 221.263 135.37 222.367 136.75 223.808C138.161 225.219 139.234 226.905 139.97 228.868C140.706 230.831 141.074 233.008 141.074 235.4C141.074 237.761 140.706 239.939 139.97 241.932C139.234 243.895 138.176 245.597 136.796 247.038C135.416 248.449 133.76 249.553 131.828 250.35C129.896 251.117 127.749 251.5 125.388 251.5H112.186ZM119.086 246.486L118.35 245.29H125.158C126.538 245.29 127.78 245.06 128.884 244.6C129.988 244.109 130.923 243.45 131.69 242.622C132.487 241.763 133.085 240.721 133.484 239.494C133.883 238.267 134.082 236.903 134.082 235.4C134.082 233.897 133.883 232.548 133.484 231.352C133.085 230.125 132.487 229.083 131.69 228.224C130.923 227.365 129.988 226.706 128.884 226.246C127.78 225.755 126.538 225.51 125.158 225.51H118.212L119.086 224.406V246.486Z" fill="black"/>
<path d="M164.434 251.776C161.827 251.776 159.497 251.239 157.442 250.166C155.418 249.062 153.823 247.559 152.658 245.658C151.493 243.726 150.91 241.549 150.91 239.126V219.254H157.856V238.712C157.856 240 158.147 241.165 158.73 242.208C159.313 243.22 160.095 244.033 161.076 244.646C162.088 245.259 163.207 245.566 164.434 245.566C165.691 245.566 166.826 245.259 167.838 244.646C168.881 244.033 169.693 243.22 170.276 242.208C170.889 241.165 171.196 240 171.196 238.712V219.254H177.912V239.126C177.912 241.549 177.329 243.726 176.164 245.658C174.999 247.559 173.389 249.062 171.334 250.166C169.31 251.239 167.01 251.776 164.434 251.776Z" fill="black"/>
<path d="M189.186 251.5V219.3H195.35L213.152 243.358H211.864C211.741 242.407 211.634 241.487 211.542 240.598C211.45 239.678 211.358 238.758 211.266 237.838C211.205 236.887 211.143 235.921 211.082 234.94C211.051 233.928 211.021 232.87 210.99 231.766C210.959 230.631 210.944 229.405 210.944 228.086V219.3H217.706V251.5H211.45L193.28 227.212L195.028 227.258C195.181 228.853 195.304 230.217 195.396 231.352C195.519 232.456 195.611 233.422 195.672 234.25C195.733 235.078 195.779 235.799 195.81 236.412C195.871 237.025 195.902 237.608 195.902 238.16C195.933 238.712 195.948 239.295 195.948 239.908V251.5H189.186Z" fill="black"/>
<path d="M229.186 251.5V219.3H250.944V225.372H235.902V245.428H251.266V251.5H229.186ZM232.406 238.022V232.134H248.736V238.022H232.406Z" fill="black"/>
<path d="M262.186 251.5V219.3H268.35L286.152 243.358H284.864C284.741 242.407 284.634 241.487 284.542 240.598C284.45 239.678 284.358 238.758 284.266 237.838C284.205 236.887 284.143 235.921 284.082 234.94C284.051 233.928 284.021 232.87 283.99 231.766C283.959 230.631 283.944 229.405 283.944 228.086V219.3H290.706V251.5H284.45L266.28 227.212L268.028 227.258C268.181 228.853 268.304 230.217 268.396 231.352C268.519 232.456 268.611 233.422 268.672 234.25C268.733 235.078 268.779 235.799 268.81 236.412C268.871 237.025 268.902 237.608 268.902 238.16C268.933 238.712 268.948 239.295 268.948 239.908V251.5H262.186Z" fill="black"/>
<path d="M307.384 241.978L305.912 235.722L322.196 219.3H330.568L307.384 241.978ZM302.186 251.5V219.3H309.086V251.5H302.186ZM323.07 251.5L311.018 235.492L315.756 231.398L331.258 251.5H323.07Z" fill="black"/>
<path d="M353.446 251.96C351.085 251.96 348.907 251.546 346.914 250.718C344.921 249.89 343.173 248.74 341.67 247.268C340.198 245.765 339.063 244.002 338.266 241.978C337.469 239.923 337.07 237.7 337.07 235.308C337.07 232.885 337.469 230.677 338.266 228.684C339.063 226.66 340.198 224.897 341.67 223.394C343.173 221.891 344.921 220.726 346.914 219.898C348.907 219.07 351.085 218.656 353.446 218.656C355.838 218.656 358.015 219.07 359.978 219.898C361.971 220.726 363.704 221.891 365.176 223.394C366.679 224.897 367.829 226.66 368.626 228.684C369.423 230.708 369.822 232.916 369.822 235.308C369.822 237.7 369.423 239.908 368.626 241.932C367.829 243.956 366.679 245.719 365.176 247.222C363.704 248.725 361.971 249.89 359.978 250.718C358.015 251.546 355.838 251.96 353.446 251.96ZM353.446 245.428C354.795 245.428 356.037 245.183 357.172 244.692C358.337 244.201 359.334 243.496 360.162 242.576C360.99 241.656 361.634 240.583 362.094 239.356C362.585 238.129 362.83 236.78 362.83 235.308C362.83 233.836 362.585 232.487 362.094 231.26C361.634 230.033 360.99 228.975 360.162 228.086C359.334 227.166 358.337 226.461 357.172 225.97C356.037 225.449 354.795 225.188 353.446 225.188C352.097 225.188 350.855 225.449 349.72 225.97C348.585 226.461 347.589 227.166 346.73 228.086C345.871 228.975 345.212 230.033 344.752 231.26C344.323 232.487 344.108 233.836 344.108 235.308C344.108 236.78 344.323 238.129 344.752 239.356C345.212 240.583 345.871 241.656 346.73 242.576C347.589 243.496 348.585 244.201 349.72 244.692C350.855 245.183 352.097 245.428 353.446 245.428Z" fill="black"/>
<path d="M204 319C194.009 322.662 171 322.5 171 322.5C170.531 325.364 190.454 333.054 204 334.5C204 334.5 219.289 334.696 229 333C239.224 331.215 245.028 330.376 255 327.5C275.651 321.543 286.17 314.862 305 304.5C328.297 291.68 361.5 266.5 361.5 266.5H284.5C284.5 266.5 253.508 296.976 229 309C219.56 313.632 204 319 204 319Z" fill="black"/>
<path d="M12.902 188.5V162.51H3.518V156.3H29.462V162.51H19.802V188.5H12.902Z" fill="black"/>
<path d="M49.186 188.5V156.3H70.944V162.372H55.902V182.428H71.266V188.5H49.186ZM52.406 175.022V169.134H68.736V175.022H52.406Z" fill="black"/>
<path d="M99.902 188.5V162.51H90.518V156.3H116.462V162.51H106.802V188.5H99.902Z" fill="black"/>
<path d="M141.338 189H135.933V155.88H141.338V189Z" fill="#0F0F0F"/>
<path d="M160.368 188.5L172.972 156.3H179.136L191.694 188.5H184.61L178.124 171.158C177.94 170.667 177.71 170.039 177.434 169.272C177.189 168.505 176.928 167.693 176.652 166.834C176.376 165.975 176.115 165.163 175.87 164.396C175.625 163.599 175.441 162.939 175.318 162.418L176.56 162.372C176.376 163.077 176.161 163.813 175.916 164.58C175.701 165.316 175.471 166.083 175.226 166.88C174.981 167.647 174.72 168.398 174.444 169.134C174.168 169.87 173.907 170.591 173.662 171.296L167.176 188.5H160.368ZM166.21 181.738L168.464 176.172H183.23L185.53 181.738H166.21Z" fill="#0F0F0F"/>
<path d="M211.186 188.5V156.3H217.35L235.152 180.358H233.864C233.741 179.407 233.634 178.487 233.542 177.598C233.45 176.678 233.358 175.758 233.266 174.838C233.205 173.887 233.143 172.921 233.082 171.94C233.051 170.928 233.021 169.87 232.99 168.766C232.959 167.631 232.944 166.405 232.944 165.086V156.3H239.706V188.5H233.45L215.28 164.212L217.028 164.258C217.181 165.853 217.304 167.217 217.396 168.352C217.519 169.456 217.611 170.422 217.672 171.25C217.733 172.078 217.779 172.799 217.81 173.412C217.871 174.025 217.902 174.608 217.902 175.16C217.933 175.712 217.948 176.295 217.948 176.908V188.5H211.186Z" fill="#0F0F0F"/>
<path d="M258.368 188.5L270.972 156.3H277.136L289.694 188.5H282.61L276.124 171.158C275.94 170.667 275.71 170.039 275.434 169.272C275.189 168.505 274.928 167.693 274.652 166.834C274.376 165.975 274.115 165.163 273.87 164.396C273.625 163.599 273.441 162.939 273.318 162.418L274.56 162.372C274.376 163.077 274.161 163.813 273.916 164.58C273.701 165.316 273.471 166.083 273.226 166.88C272.981 167.647 272.72 168.398 272.444 169.134C272.168 169.87 271.907 170.591 271.662 171.296L265.176 188.5H258.368ZM264.21 181.738L266.464 176.172H281.23L283.53 181.738H264.21Z" fill="#0F0F0F"/>
<path d="M473.5 112.576V132.5H501.318L507.5 116.246C507.5 116.246 501.116 112.994 496.682 112.576C494.879 112.405 492.045 112.576 492.045 112.576H487.409H473.5Z" fill="#100F0F"/>
<path d="M414 152.5V226.5L421.5 220C421.5 220 419.751 199.296 422.5 186.5C423.007 184.139 423.219 183.429 424 180.5L426 173C426 173 428.237 168.783 429.5 166C430.549 163.688 430.612 162.125 432 160C432.984 158.493 433.299 157.09 435 156.5C436.107 156.116 436.828 156.5 438 156.5C439.172 156.5 439.923 156.038 441 156.5C442.015 156.935 442.28 157.662 443 158.5C443.636 159.24 443.952 159.692 444.5 160.5C445.384 161.803 446.125 162.471 446.5 164C446.826 165.327 446.208 166.165 446.5 167.5C446.725 168.527 446.756 169.256 447.5 170C448.244 170.744 448.952 171.087 450 171C450.87 170.927 451.386 170.621 452 170C452.739 169.252 452.742 168.519 453 167.5C453.725 164.636 453.05 162.762 452 160C451.191 157.871 450.449 156.756 449 155C447.504 153.186 446.575 152.107 444.5 151C442.536 149.952 441.226 149.5 439 149.5C436.774 149.5 433.5 151 433.5 151C433.5 151 430.838 153.242 429.5 155C427.649 157.432 426 162 426 162H424V152.5H422.5H414Z" fill="#100F0F" stroke="black"/>
<path d="M464.5 133L463 184L474 174.5L472.5 133H464.5Z" fill="#100F0F" stroke="black"/>
<path d="M327.5 208.5H335C335 208.5 346 191 348.5 192C351 193 388.5 189 388.5 189V191L387.5 206.5C387.5 206.5 384.916 220.758 384.5 230C384.272 235.072 384.5 243 384.5 243L386 249.5L397.5 238L396 228C395.19 213.941 395.411 206.059 396 192H398C398 192 402.942 192.841 405 191C406.173 189.95 407 190 407 187.5C407 185 406 185.5 404 184.5C402 183.5 397.5 183 397.5 183V181V132H463.5V115L451 118C451 118 446.335 118.797 444.5 117C442.909 115.442 442.563 113.683 443 111.5C443.542 108.792 445.67 107.983 448 106.5C450.605 104.842 452.507 104.756 455.5 104C459.142 103.081 465 102.5 465 102.5V86V80C465 80 468.018 79.1943 470 79C471.943 78.8095 473.254 78.1268 475 79C476.746 79.8732 477.415 81.137 478 83C478.526 84.6767 478.094 85.7452 478 87.5C477.711 92.893 475 101 475 101L512 102.5C512 102.5 515.792 82.9972 512 71.5C510.795 67.8473 510.486 65.4348 508 62.5C505.829 59.9366 501 57.5 501 57.5C501 57.5 503.588 35.5683 503 21.5C502.664 13.4633 501 1 501 1C501 1 491.5 2 492 6C492.5 10 493.639 11.7616 494.5 15.5C495.703 20.7249 496.48 23.6635 497 29L497.025 29.2601C497.597 35.1264 497.937 38.6085 497 44.5C496.398 48.2887 497 54 494.5 54C492 54 485.307 53.232 479.5 54C474.101 54.714 471.145 55.7147 466 57.5C455.267 61.224 449.768 64.9294 440.5 71.5C432.708 77.0246 428.971 80.97 422 87.5C412.526 96.3747 407.458 101.652 399 111.5C368.713 146.764 327.5 208.5 327.5 208.5Z" fill="black" fill-opacity="0.8" stroke="black"/>
<path d="M352.5 182.5L388.5 181.5L387.5 133H386L378.5 143L366 161L352.5 182.5Z" fill="white" stroke="black"/>
</svg>
